# xmcd
#
# Track frame offsets: 
#        150
#        16390
#        36108
#        62445
#        82294
#        97089
#        111399
#        124769
#        150784
#        170359
#        187199
#        201159
#        221671
#        238854
#        256176
#        269881
#        288098
#        310153
#        327386
#        342268
#
# Disc length: 4737 seconds
#
# Revision: 3
# Processed by: cddbd v1.5.2PL0 Copyright (c) Steve Scherf et al.
# Submitted via: ExactAudioCopyFreeDBPlugin 1.0
#
DISCID=2c127f14
DTITLE=ABBA - More Abba Gold - 40th Anniversary Edition
DYEAR=2014
DGENRE=Pop
TTITLE0=Summer night city
TTITLE1=Angeleyes
TTITLE2=The day before you came
TTITLE3=Eagle
TTITLE4=I do, I do, I do, I do, I do
TTITLE5=So long
TTITLE6=Honey, honey
TTITLE7=The visitors
TTITLE8=Our last summer
TTITLE9=On and on and on
TTITLE10=Ring ring
TTITLE11=I wonder (Departure)
TTITLE12=Lovelight
TTITLE13=Head over heels
TTITLE14=When I kissed the teacher
TTITLE15=I am the city
TTITLE16=Cassandra
TTITLE17=Under attack
TTITLE18=When all is said and done
TTITLE19=The way old friends do
EXTD=YEAR: 2003
EXTT0=
EXTT1=
EXTT2=
EXTT3=
EXTT4=
EXTT5=
EXTT6=
EXTT7=
EXTT8=
EXTT9=
EXTT10=
EXTT11=
EXTT12=
EXTT13=
EXTT14=
EXTT15=
EXTT16=
EXTT17=
EXTT18=
EXTT19=
PLAYORDER=
